<svg width="1600" height="1080" viewBox="0 0 1600 1080" fill="none" xmlns="http://www.w3.org/2000/svg">
<rect width="1600" height="1080" rx="36" fill="#060606"/>
<rect x="1" y="1" width="1598" height="1078" rx="35" stroke="rgba(255,255,255,0.10)"/>
<defs>
  <linearGradient id="bgGlow" x1="220" y1="140" x2="1310" y2="950" gradientUnits="userSpaceOnUse">
    <stop stop-color="#0E1117"/>
    <stop offset="0.52" stop-color="#090909"/>
    <stop offset="1" stop-color="#050505"/>
  </linearGradient>
  <linearGradient id="panel" x1="0" y1="0" x2="0" y2="1">
    <stop stop-color="#111214"/>
    <stop offset="1" stop-color="#0A0A0B"/>
  </linearGradient>
  <linearGradient id="accent" x1="874" y1="158" x2="1414" y2="402" gradientUnits="userSpaceOnUse">
    <stop stop-color="#F7F9FF"/>
    <stop offset="0.42" stop-color="#60A5FA"/>
    <stop offset="1" stop-color="#2563EB"/>
  </linearGradient>
  <linearGradient id="chartFill" x1="0" y1="0" x2="0" y2="1">
    <stop stop-color="#60A5FA" stop-opacity="0.42"/>
    <stop offset="1" stop-color="#60A5FA" stop-opacity="0"/>
  </linearGradient>
  <linearGradient id="cardGlow" x1="418" y1="674" x2="1232" y2="301" gradientUnits="userSpaceOnUse">
    <stop stop-color="#1D4ED8" stop-opacity="0"/>
    <stop offset="0.46" stop-color="#3B82F6" stop-opacity="0.26"/>
    <stop offset="1" stop-color="#FFFFFF" stop-opacity="0.10"/>
  </linearGradient>
  <filter id="blur" x="888" y="118" width="446" height="282" filterUnits="userSpaceOnUse" color-interpolation-filters="sRGB">
    <feFlood flood-opacity="0" result="BackgroundImageFix"/>
    <feBlend mode="normal" in="SourceGraphic" in2="BackgroundImageFix" result="shape"/>
    <feGaussianBlur stdDeviation="44" result="effect1_foregroundBlur_0_1"/>
  </filter>
</defs>
<rect x="24" y="24" width="1552" height="1032" rx="28" fill="url(#bgGlow)"/>
<g filter="url(#blur)">
  <circle cx="1111" cy="259" r="119" fill="#2563EB" fill-opacity="0.34"/>
</g>
<rect x="56" y="56" width="1488" height="82" rx="20" fill="#090909"/>
<rect x="56.5" y="56.5" width="1487" height="81" rx="19.5" stroke="rgba(255,255,255,0.08)"/>
<circle cx="95" cy="97" r="8" fill="#FE5F57"/>
<circle cx="123" cy="97" r="8" fill="#FEBB2E"/>
<circle cx="151" cy="97" r="8" fill="#28C840"/>
<text x="204" y="106" fill="white" fill-opacity="0.92" font-family="Inter, Arial, sans-serif" font-size="28" font-weight="700">Vault Dashboard</text>
<rect x="1268" y="78" width="236" height="38" rx="19" fill="white" fill-opacity="0.05"/>
<rect x="1268.5" y="78.5" width="235" height="37" rx="18.5" stroke="rgba(255,255,255,0.08)"/>
<text x="1301" y="103" fill="white" fill-opacity="0.64" font-family="Inter, Arial, sans-serif" font-size="18" font-weight="500">Live sync enabled</text>
<rect x="90" y="174" width="270" height="810" rx="30" fill="url(#panel)"/>
<rect x="90.5" y="174.5" width="269" height="809" rx="29.5" stroke="rgba(255,255,255,0.08)"/>
<rect x="122" y="210" width="206" height="66" rx="22" fill="white" fill-opacity="0.04"/>
<text x="148" y="252" fill="white" font-family="Inter, Arial, sans-serif" font-size="28" font-weight="700">Overview</text>
<g opacity="0.9">
  <rect x="122" y="312" width="206" height="68" rx="20" fill="#2563EB" fill-opacity="0.18"/>
  <rect x="122.5" y="312.5" width="205" height="67" rx="19.5" stroke="rgba(96,165,250,0.36)"/>
  <text x="154" y="353" fill="white" font-family="Inter, Arial, sans-serif" font-size="23" font-weight="600">Accounts</text>
</g>
<text x="154" y="454" fill="white" fill-opacity="0.56" font-family="Inter, Arial, sans-serif" font-size="23" font-weight="500">Transactions</text>
<text x="154" y="532" fill="white" fill-opacity="0.56" font-family="Inter, Arial, sans-serif" font-size="23" font-weight="500">Investments</text>
<text x="154" y="610" fill="white" fill-opacity="0.56" font-family="Inter, Arial, sans-serif" font-size="23" font-weight="500">Analytics</text>
<text x="154" y="688" fill="white" fill-opacity="0.56" font-family="Inter, Arial, sans-serif" font-size="23" font-weight="500">Cards</text>
<line x1="122" y1="862" x2="328" y2="862" stroke="white" stroke-opacity="0.08"/>
<text x="122" y="922" fill="white" fill-opacity="0.45" font-family="Inter, Arial, sans-serif" font-size="22" font-weight="500">Settings</text>
<text x="250" y="922" fill="#60A5FA" font-family="Inter, Arial, sans-serif" font-size="22" font-weight="600">Pro</text>
<rect x="400" y="174" width="1110" height="810" rx="30" fill="#080808"/>
<rect x="400.5" y="174.5" width="1109" height="809" rx="29.5" stroke="rgba(255,255,255,0.08)"/>
<text x="448" y="252" fill="white" fill-opacity="0.62" font-family="Inter, Arial, sans-serif" font-size="20" font-weight="500">Net worth</text>
<text x="448" y="328" fill="white" font-family="Inter, Arial, sans-serif" font-size="70" font-weight="800">$218,750</text>
<text x="745" y="328" fill="#86EFAC" font-family="Inter, Arial, sans-serif" font-size="26" font-weight="700">+12.4%</text>
<rect x="1238" y="214" width="224" height="56" rx="18" fill="white" fill-opacity="0.04"/>
<rect x="1238.5" y="214.5" width="223" height="55" rx="17.5" stroke="rgba(255,255,255,0.08)"/>
<text x="1277" y="249" fill="white" fill-opacity="0.66" font-family="Inter, Arial, sans-serif" font-size="20" font-weight="500">Last 30 days</text>
<rect x="448" y="370" width="308" height="176" rx="26" fill="url(#panel)"/>
<rect x="448.5" y="370.5" width="307" height="175" rx="25.5" stroke="rgba(255,255,255,0.08)"/>
<text x="484" y="424" fill="white" fill-opacity="0.58" font-family="Inter, Arial, sans-serif" font-size="22" font-weight="500">Cash position</text>
<text x="484" y="491" fill="white" font-family="Inter, Arial, sans-serif" font-size="48" font-weight="800">$54,630</text>
<text x="484" y="526" fill="#86EFAC" font-family="Inter, Arial, sans-serif" font-size="22" font-weight="700">Available liquidity</text>
<rect x="479" y="566" width="246" height="8" rx="4" fill="white" fill-opacity="0.08"/>
<rect x="479" y="566" width="186" height="8" rx="4" fill="url(#accent)"/>
<rect x="778" y="370" width="308" height="176" rx="26" fill="url(#panel)"/>
<rect x="778.5" y="370.5" width="307" height="175" rx="25.5" stroke="rgba(255,255,255,0.08)"/>
<text x="814" y="424" fill="white" fill-opacity="0.58" font-family="Inter, Arial, sans-serif" font-size="22" font-weight="500">Investments</text>
<text x="814" y="491" fill="white" font-family="Inter, Arial, sans-serif" font-size="48" font-weight="800">$164,120</text>
<text x="814" y="526" fill="#60A5FA" font-family="Inter, Arial, sans-serif" font-size="22" font-weight="700">7 active positions</text>
<rect x="1108" y="370" width="354" height="176" rx="26" fill="url(#panel)"/>
<rect x="1108.5" y="370.5" width="353" height="175" rx="25.5" stroke="rgba(255,255,255,0.08)"/>
<text x="1144" y="424" fill="white" fill-opacity="0.58" font-family="Inter, Arial, sans-serif" font-size="22" font-weight="500">AI Budget coach</text>
<text x="1144" y="474" fill="white" font-family="Inter, Arial, sans-serif" font-size="32" font-weight="700">Spending stayed under goal</text>
<text x="1144" y="513" fill="white" fill-opacity="0.56" font-family="Inter, Arial, sans-serif" font-size="20" font-weight="500">Projected savings this month: $3,840</text>
<rect x="1144" y="576" width="318" height="356" rx="26" fill="#0C0C0D"/>
<rect x="1144.5" y="576.5" width="317" height="355" rx="25.5" stroke="rgba(255,255,255,0.08)"/>
<text x="1178" y="632" fill="white" fill-opacity="0.58" font-family="Inter, Arial, sans-serif" font-size="22" font-weight="500">Top merchants</text>
<text x="1178" y="692" fill="white" font-family="Inter, Arial, sans-serif" font-size="22" font-weight="600">Stripe</text>
<text x="1406" y="692" fill="white" fill-opacity="0.82" font-family="Inter, Arial, sans-serif" font-size="22" font-weight="700">$4,230</text>
<text x="1178" y="753" fill="white" font-family="Inter, Arial, sans-serif" font-size="22" font-weight="600">AWS</text>
<text x="1406" y="753" fill="white" fill-opacity="0.82" font-family="Inter, Arial, sans-serif" font-size="22" font-weight="700">$1,860</text>
<text x="1178" y="814" fill="white" font-family="Inter, Arial, sans-serif" font-size="22" font-weight="600">Figma</text>
<text x="1406" y="814" fill="white" fill-opacity="0.82" font-family="Inter, Arial, sans-serif" font-size="22" font-weight="700">$420</text>
<line x1="1178" y1="711" x2="1428" y2="711" stroke="white" stroke-opacity="0.08"/>
<line x1="1178" y1="772" x2="1428" y2="772" stroke="white" stroke-opacity="0.08"/>
<line x1="1178" y1="833" x2="1428" y2="833" stroke="white" stroke-opacity="0.08"/>
<rect x="448" y="576" width="664" height="356" rx="26" fill="#0B0B0C"/>
<rect x="448.5" y="576.5" width="663" height="355" rx="25.5" stroke="rgba(255,255,255,0.08)"/>
<rect x="448" y="576" width="664" height="356" rx="26" fill="url(#cardGlow)"/>
<text x="484" y="632" fill="white" fill-opacity="0.58" font-family="Inter, Arial, sans-serif" font-size="22" font-weight="500">Portfolio growth</text>
<text x="484" y="681" fill="white" font-family="Inter, Arial, sans-serif" font-size="30" font-weight="700">+18.9% in the last 6 months</text>
<path d="M504 846C568 824 622 792 680 788C724 785 754 824 803 824C849 824 887 703 942 688C1006 671 1047 728 1074 630" stroke="url(#accent)" stroke-width="10" stroke-linecap="round"/>
<path d="M504 846C568 824 622 792 680 788C724 785 754 824 803 824C849 824 887 703 942 688C1006 671 1047 728 1074 630V888H504V846Z" fill="url(#chartFill)"/>
<line x1="504" y1="888" x2="1074" y2="888" stroke="white" stroke-opacity="0.12"/>
<line x1="504" y1="818" x2="1074" y2="818" stroke="white" stroke-opacity="0.06"/>
<line x1="504" y1="748" x2="1074" y2="748" stroke="white" stroke-opacity="0.06"/>
<line x1="504" y1="678" x2="1074" y2="678" stroke="white" stroke-opacity="0.06"/>
<line x1="504" y1="608" x2="1074" y2="608" stroke="white" stroke-opacity="0.06"/>
<circle cx="680" cy="788" r="9" fill="#060606" stroke="#93C5FD" stroke-width="4"/>
<circle cx="803" cy="824" r="9" fill="#060606" stroke="#93C5FD" stroke-width="4"/>
<circle cx="942" cy="688" r="9" fill="#060606" stroke="#93C5FD" stroke-width="4"/>
<circle cx="1074" cy="630" r="9" fill="#060606" stroke="#F8FAFC" stroke-width="4"/>
<text x="484" y="972" fill="white" fill-opacity="0.46" font-family="Inter, Arial, sans-serif" font-size="18" font-weight="500">Jan</text>
<text x="606" y="972" fill="white" fill-opacity="0.46" font-family="Inter, Arial, sans-serif" font-size="18" font-weight="500">Feb</text>
<text x="724" y="972" fill="white" fill-opacity="0.46" font-family="Inter, Arial, sans-serif" font-size="18" font-weight="500">Mar</text>
<text x="842" y="972" fill="white" fill-opacity="0.46" font-family="Inter, Arial, sans-serif" font-size="18" font-weight="500">Apr</text>
<text x="960" y="972" fill="white" fill-opacity="0.46" font-family="Inter, Arial, sans-serif" font-size="18" font-weight="500">May</text>
<text x="1056" y="972" fill="white" fill-opacity="0.46" font-family="Inter, Arial, sans-serif" font-size="18" font-weight="500">Jun</text>
</svg>
