<svg width="1200" height="1600" viewBox="0 0 1200 1600" fill="none" xmlns="http://www.w3.org/2000/svg">
<defs>
  <linearGradient id="bg" x1="96" y1="72" x2="1134" y2="1522" gradientUnits="userSpaceOnUse">
    <stop stop-color="#090909"/>
    <stop offset="0.5" stop-color="#050505"/>
    <stop offset="1" stop-color="#020202"/>
  </linearGradient>
  <linearGradient id="panel" x1="0" y1="0" x2="0" y2="1">
    <stop stop-color="#101113"/>
    <stop offset="1" stop-color="#090909"/>
  </linearGradient>
  <linearGradient id="accent" x1="449" y1="253" x2="918" y2="514" gradientUnits="userSpaceOnUse">
    <stop stop-color="#F8FAFC"/>
    <stop offset="0.46" stop-color="#93C5FD"/>
    <stop offset="1" stop-color="#2563EB"/>
  </linearGradient>
  <linearGradient id="fill" x1="0" y1="0" x2="0" y2="1">
    <stop stop-color="#60A5FA" stop-opacity="0.35"/>
    <stop offset="1" stop-color="#60A5FA" stop-opacity="0"/>
  </linearGradient>
  <filter id="blur" x="652" y="96" width="396" height="396" filterUnits="userSpaceOnUse" color-interpolation-filters="sRGB">
    <feFlood flood-opacity="0" result="BackgroundImageFix"/>
    <feBlend mode="normal" in="SourceGraphic" in2="BackgroundImageFix" result="shape"/>
    <feGaussianBlur stdDeviation="60" result="effect1_foregroundBlur_0_1"/>
  </filter>
</defs>

<rect width="1200" height="1600" rx="36" fill="#030303"/>
<rect x="1" y="1" width="1198" height="1598" rx="35" stroke="rgba(255,255,255,0.08)"/>
<rect x="24" y="24" width="1152" height="1552" rx="28" fill="url(#bg)"/>
<rect x="24" y="24" width="1152" height="1552" rx="28" stroke="rgba(255,255,255,0.06)"/>
<g opacity="0.9">
  <path d="M24 120H1176" stroke="rgba(255,255,255,0.05)"/>
  <path d="M24 216H1176" stroke="rgba(255,255,255,0.05)"/>
  <path d="M24 312H1176" stroke="rgba(255,255,255,0.05)"/>
  <path d="M24 408H1176" stroke="rgba(255,255,255,0.05)"/>
  <path d="M24 504H1176" stroke="rgba(255,255,255,0.05)"/>
  <path d="M24 600H1176" stroke="rgba(255,255,255,0.05)"/>
  <path d="M24 696H1176" stroke="rgba(255,255,255,0.05)"/>
  <path d="M24 792H1176" stroke="rgba(255,255,255,0.05)"/>
  <path d="M24 888H1176" stroke="rgba(255,255,255,0.05)"/>
  <path d="M24 984H1176" stroke="rgba(255,255,255,0.05)"/>
  <path d="M24 1080H1176" stroke="rgba(255,255,255,0.05)"/>
  <path d="M24 1176H1176" stroke="rgba(255,255,255,0.05)"/>
  <path d="M24 1272H1176" stroke="rgba(255,255,255,0.05)"/>
  <path d="M24 1368H1176" stroke="rgba(255,255,255,0.05)"/>
  <path d="M24 1464H1176" stroke="rgba(255,255,255,0.05)"/>
  <path d="M120 24V1576" stroke="rgba(255,255,255,0.05)"/>
  <path d="M216 24V1576" stroke="rgba(255,255,255,0.05)"/>
  <path d="M312 24V1576" stroke="rgba(255,255,255,0.05)"/>
  <path d="M408 24V1576" stroke="rgba(255,255,255,0.05)"/>
  <path d="M504 24V1576" stroke="rgba(255,255,255,0.05)"/>
  <path d="M600 24V1576" stroke="rgba(255,255,255,0.05)"/>
  <path d="M696 24V1576" stroke="rgba(255,255,255,0.05)"/>
  <path d="M792 24V1576" stroke="rgba(255,255,255,0.05)"/>
  <path d="M888 24V1576" stroke="rgba(255,255,255,0.05)"/>
  <path d="M984 24V1576" stroke="rgba(255,255,255,0.05)"/>
  <path d="M1080 24V1576" stroke="rgba(255,255,255,0.05)"/>
</g>

<g filter="url(#blur)">
  <circle cx="850" cy="270" r="138" fill="#2563EB" fill-opacity="0.28"/>
</g>

<text x="84" y="118" fill="white" fill-opacity="0.9" font-family="Inter, Arial, sans-serif" font-size="30" font-weight="700">Vault</text>
<text x="884" y="118" fill="white" fill-opacity="0.5" font-family="Inter, Arial, sans-serif" font-size="23" font-weight="500">Features</text>
<text x="1000" y="118" fill="white" fill-opacity="0.5" font-family="Inter, Arial, sans-serif" font-size="23" font-weight="500">Pricing</text>
<rect x="900" y="72" width="216" height="58" rx="18" fill="white"/>
<text x="959" y="109" fill="#090909" font-family="Inter, Arial, sans-serif" font-size="24" font-weight="700">Get started</text>

<rect x="396" y="226" width="408" height="52" rx="26" fill="white" fill-opacity="0.04"/>
<rect x="396.5" y="226.5" width="407" height="51" rx="25.5" stroke="rgba(255,255,255,0.08)"/>
<circle cx="436" cy="252" r="8" fill="#60A5FA"/>
<text x="460" y="261" fill="white" fill-opacity="0.72" font-family="Inter, Arial, sans-serif" font-size="22" font-weight="500">Now processing $12B annually</text>

<text x="198" y="422" fill="white" font-family="Inter, Arial, sans-serif" font-size="92" font-weight="800">The modern way</text>
<text x="156" y="530" fill="white" font-family="Inter, Arial, sans-serif" font-size="92" font-weight="800">to manage</text>
<text x="712" y="530" fill="url(#accent)" font-family="Inter, Arial, sans-serif" font-size="92" font-weight="800">money.</text>
<text x="246" y="636" fill="white" fill-opacity="0.58" font-family="Inter, Arial, sans-serif" font-size="31" font-weight="500">Black-first banking for modern operators, personal wealth,</text>
<text x="248" y="682" fill="white" fill-opacity="0.58" font-family="Inter, Arial, sans-serif" font-size="31" font-weight="500">and teams that want clarity instead of dashboard clutter.</text>

<rect x="372" y="742" width="236" height="78" rx="24" fill="white"/>
<text x="431" y="792" fill="#090909" font-family="Inter, Arial, sans-serif" font-size="29" font-weight="700">Open account</text>
<rect x="626" y="742" width="220" height="78" rx="24" fill="white" fill-opacity="0.04"/>
<rect x="626.5" y="742.5" width="219" height="77" rx="23.5" stroke="rgba(255,255,255,0.10)"/>
<text x="684" y="792" fill="white" fill-opacity="0.76" font-family="Inter, Arial, sans-serif" font-size="29" font-weight="700">See features</text>

<rect x="106" y="904" width="988" height="580" rx="36" fill="#080808"/>
<rect x="106.5" y="904.5" width="987" height="579" rx="35.5" stroke="rgba(255,255,255,0.10)"/>
<rect x="136" y="938" width="928" height="74" rx="22" fill="#0B0B0C"/>
<rect x="136.5" y="938.5" width="927" height="73" rx="21.5" stroke="rgba(255,255,255,0.07)"/>
<circle cx="175" cy="975" r="7" fill="#FE5F57"/>
<circle cx="201" cy="975" r="7" fill="#FEBB2E"/>
<circle cx="227" cy="975" r="7" fill="#28C840"/>
<text x="270" y="984" fill="white" fill-opacity="0.92" font-family="Inter, Arial, sans-serif" font-size="28" font-weight="700">Vault Dashboard</text>

<rect x="148" y="1046" width="224" height="394" rx="28" fill="url(#panel)"/>
<rect x="148.5" y="1046.5" width="223" height="393" rx="27.5" stroke="rgba(255,255,255,0.08)"/>
<rect x="176" y="1084" width="168" height="56" rx="18" fill="#2563EB" fill-opacity="0.18"/>
<rect x="176.5" y="1084.5" width="167" height="55" rx="17.5" stroke="rgba(96,165,250,0.30)"/>
<text x="214" y="1121" fill="white" font-family="Inter, Arial, sans-serif" font-size="24" font-weight="600">Accounts</text>
<text x="214" y="1194" fill="white" fill-opacity="0.54" font-family="Inter, Arial, sans-serif" font-size="22" font-weight="500">Cards</text>
<text x="214" y="1260" fill="white" fill-opacity="0.54" font-family="Inter, Arial, sans-serif" font-size="22" font-weight="500">Analytics</text>
<text x="214" y="1326" fill="white" fill-opacity="0.54" font-family="Inter, Arial, sans-serif" font-size="22" font-weight="500">Security</text>

<rect x="402" y="1046" width="634" height="394" rx="28" fill="#0A0A0B"/>
<rect x="402.5" y="1046.5" width="633" height="393" rx="27.5" stroke="rgba(255,255,255,0.08)"/>
<text x="446" y="1110" fill="white" fill-opacity="0.58" font-family="Inter, Arial, sans-serif" font-size="22" font-weight="500">Net worth</text>
<text x="446" y="1188" fill="white" font-family="Inter, Arial, sans-serif" font-size="62" font-weight="800">$218,750</text>
<text x="768" y="1188" fill="#86EFAC" font-family="Inter, Arial, sans-serif" font-size="24" font-weight="700">+12.4%</text>
<path d="M444 1362C503 1345 559 1311 621 1305C680 1299 714 1332 763 1326C821 1318 870 1206 929 1184C960 1173 990 1181 1016 1150" stroke="url(#accent)" stroke-width="10" stroke-linecap="round"/>
<path d="M444 1362C503 1345 559 1311 621 1305C680 1299 714 1332 763 1326C821 1318 870 1206 929 1184C960 1173 990 1181 1016 1150V1400H444V1362Z" fill="url(#fill)"/>
<line x1="444" y1="1400" x2="1016" y2="1400" stroke="white" stroke-opacity="0.12"/>
<line x1="444" y1="1328" x2="1016" y2="1328" stroke="white" stroke-opacity="0.06"/>
<line x1="444" y1="1256" x2="1016" y2="1256" stroke="white" stroke-opacity="0.06"/>
<circle cx="621" cy="1305" r="8" fill="#060606" stroke="#93C5FD" stroke-width="4"/>
<circle cx="763" cy="1326" r="8" fill="#060606" stroke="#93C5FD" stroke-width="4"/>
<circle cx="929" cy="1184" r="8" fill="#060606" stroke="#93C5FD" stroke-width="4"/>
<circle cx="1016" cy="1150" r="8" fill="#060606" stroke="#F8FAFC" stroke-width="4"/>
</svg>
